<?xml version="1.0" encoding="UTF-8"?>
<!-- Created with Inkscape (http://www.inkscape.org/) -->
<svg width="36.757mm" height="39.363mm" version="1.1" viewBox="0 0 138.92 148.77" xmlns="http://www.w3.org/2000/svg" xmlns:xlink="http://www.w3.org/1999/xlink">
 <defs>
  <radialGradient id="radialGradient27" cx="500.07" cy="443.22" r="71.452" gradientTransform="matrix(.88918 0 0 .86693 51.946 59.217)" gradientUnits="userSpaceOnUse">
   <stop stop-color="#f1d8d8" offset="0"/>
   <stop stop-color="hsl(337, 71.69, 73.909)" stop-opacity=".479" offset="1"/>
  </radialGradient>
  <linearGradient id="linearGradient146" x1="361.67" x2="642.14" y1="497.58" y2="497.58" gradientUnits="userSpaceOnUse">
   <stop stop-color="#302121" offset="0"/>
   <stop stop-color="#c21f1f" offset="1"/>
  </linearGradient>
  <linearGradient id="linearGradient147" x1="361.67" x2="642.14" y1="497.58" y2="497.58" gradientTransform="matrix(1.0577 0 0 1 -24.597 0)" gradientUnits="userSpaceOnUse">
   <stop stop-color="#302121" offset="0"/>
   <stop stop-color="#c21f1f" offset="1"/>
  </linearGradient>
 </defs>
 <g transform="translate(-425.41 -381.51)">
  <ellipse cx="496.6" cy="443.45" rx="63.533" ry="61.944" fill="url(#radialGradient27)" stroke-opacity="0" style="mix-blend-mode:hard-light"/>
  <g transform="matrix(1 0 0 .36462 -.70654 322.14)" fill="url(#linearGradient146)" fill-rule="evenodd">
   <path d="m427.49 251.97 15.203 124.41-16.58 20.059 55.023 140.44 8.668 33.98 5.7715-23.924 5.7695 23.924 8.668-33.98 55.023-140.44-16.58-20.059 15.203-124.41-44.857 107.97c22.805 44.61-5.6343 89.771-14.721 137.99-1.6991-6.2625-4.7886-13.324-8.5059-20.895-3.7173 7.5704-6.8088 14.632-8.5078 20.895-9.0864-48.219-37.525-93.38-14.721-137.99z" fill="url(#linearGradient147)" fill-rule="evenodd"/>
  </g>
 </g>
</svg>
